<?xml version="1.0" encoding="utf-8"?>
<!-- Generator: Adobe Illustrator 17.0.0, SVG Export Plug-In . SVG Version: 6.00 Build 0)  -->
<!DOCTYPE svg PUBLIC "-//W3C//DTD SVG 1.1//EN" "http://www.w3.org/Graphics/SVG/1.1/DTD/svg11.dtd">
<svg version="1.1" id="Layer_1" xmlns="http://www.w3.org/2000/svg" xmlns:xlink="http://www.w3.org/1999/xlink" x="0px" y="0px"
	 width="180px" height="150px" viewBox="0 -40 180 150" enable-background="new 0 -40 180 150" xml:space="preserve">
<path fill="#39435B" stroke="#39435B" stroke-width="0.7461" stroke-miterlimit="10" d="M47.856,45.504
	c-3.456,0-6.302,2.439-6.302,5.895s2.846,5.895,6.302,5.895c3.252,0,6.098-2.439,6.098-5.895
	C53.955,47.943,51.109,45.504,47.856,45.504z M47.736,55.153c-2.044,0-3.816-1.635-3.816-3.816c0-2.044,1.772-3.68,3.816-3.68
	c2.044,0,3.816,1.635,3.816,3.68C51.552,53.518,49.781,55.153,47.736,55.153z M63.574,17.939l0.001,0.012
	c-5.635,1.096-18.805,3.636-18.066,9.093c2.301,2.559,15.858,2.124,19.413,2.124l0,0l46.8,0.657c1.913,0,4.005-1.124,4.005-1.733
	L94.753,17.921C84.589,15.075,77.893,14.763,63.574,17.939z M47.351,26.179c0-3.38,12.002-5.642,16.332-6.31l0.003,0.046
	c0.092-0.028,0.188-0.053,0.281-0.081v5.084l0.157,2.792l-0.857-0.008l0.007-0.253C59.559,27.414,49.057,27.127,47.351,26.179z
	 M64.98,27.717l0.327-8.267c8.959-2.374,20.641-2.675,29.382-0.205l16.915,8.906L64.98,27.717z M136.893,44.691
	c-3.049,0-5.692,2.439-5.692,5.489c0,3.252,2.643,5.692,5.692,5.692s5.692-2.439,5.692-5.692
	C142.585,47.13,139.942,44.691,136.893,44.691z M136.893,54.029c-2.044,0-3.816-1.635-3.816-3.816c0-2.044,1.772-3.68,3.816-3.68
	c2.044,0,3.816,1.635,3.816,3.68C140.709,52.393,138.937,54.029,136.893,54.029z M171.248,40.015
	c-1.626-3.659-4.675-5.082-8.335-5.285c-2.439-2.439-5.895-5.082-9.351-5.692c-10.367-1.22-20.735-1.22-31.102-2.643
	C90.342,8.913,83.227,5.864,43.79,17.654c-8.741,2.643-28.663,9.554-31.712,19.108l-1.016,13.823
	c5.895,4.675,17.482,6.505,25.004,6.505c2.236,4.472,6.708,7.115,11.79,7.115c4.879,0,9.554-2.846,11.79-7.318l66.879-0.203
	c2.236,3.456,6.098,5.489,10.367,5.489s8.131-2.033,10.571-5.489c8.944,0,16.059,1.016,23.987-4.472L171.248,40.015z M47.856,62.579
	c-6.302,0-11.587-4.675-11.587-10.977c0-6.505,5.285-11.181,11.587-11.181c6.098,0,11.587,4.675,11.587,11.181
	C59.443,57.904,53.955,62.579,47.856,62.579z M136.893,60.75c-5.895,0-10.774-4.472-10.774-10.367s5.082-10.367,10.774-10.367
	s10.774,4.472,10.774,10.367S142.585,60.75,136.893,60.75z M169.825,51.399c-6.505,4.472-13.213,3.862-20.531,3.659
	c0.203-0.61,0.407-1.016,0.61-1.626c0.203-1.016,0.407-2.033,0.407-3.252c0-7.318-6.302-12.807-13.62-12.807
	c-7.115,0-13.416,5.489-13.416,12.807c0,1.829,0.407,3.456,1.016,5.082l-63.017,0.203c0.407-1.22,0.61-2.643,0.61-3.862
	c0-7.725-6.505-13.417-14.026-13.417s-14.23,5.692-14.23,13.417c0,1.423,0.203,2.643,0.61,3.862
	c-6.098-0.203-16.466-1.83-21.548-5.489l0.813-13.01c2.643-6.912,15.653-13.417,30.695-17.889
	c38.827-11.587,46.145-8.741,77.857,8.944c10.367,1.22,20.735,1.626,31.305,2.439c3.253,0.813,6.505,3.456,8.741,5.895
	c3.253,0,6.098,0.813,7.725,4.066L169.825,51.399L169.825,51.399z M28.146,29.325c-3.836,0.491-8.763,4.074-10.89,7.147
	c-1.927,3.037-1.381,6.037,2.619,5.309c3.836-0.492,8.563-4.038,10.69-7.111C32.492,31.633,32.146,28.597,28.146,29.325z
	 M29.347,33.652c-1.963,2.837-6.326,6.11-9.726,6.729c-2.636,0.273-2.291-1.236-0.946-2.927c1.272-2.091,3.618-3.964,5.672-5.164
	c1.491-0.891,2.854-1.346,4.054-1.564C31.038,30.451,30.492,31.997,29.347,33.652z M151.391,32.682
	c-2.846-0.203-3.862,1.83-2.033,3.862c1.22,1.423,5.082,3.456,7.115,3.456c2.846,0.203,3.659-1.626,1.829-3.862
	C157.083,34.511,153.424,32.885,151.391,32.682z M156.473,38.577c-1.829-0.203-4.472-1.626-5.895-3.049
	c-0.813-1.016-0.813-1.423,0.61-1.22c2.033,0,4.675,1.423,5.895,2.846C158.099,38.17,157.896,38.577,156.473,38.577z M63.967,27.452
	c-0.191,0-0.426-0.001-0.694-0.004l0.197-7.472c0.07-0.022,0.145-0.041,0.216-0.062l0.281,5.003
	C63.967,24.917,63.967,27.452,63.967,27.452z"/>
</svg>
